<svg version="1.1" xmlns="http://www.w3.org/2000/svg" x="0" y="0" viewBox="0 0 600 600" xml:space="preserve" fill="white">
  <path d="M190.65 160.79c2.65 3.96 9.98 10.44 13.84 14.29 11.96 11.95 32.98 40.2 29.53 56.29-1.95 9.09-23 21.36-31.57 25.62l-39.94 17.24c4.33 0 7.81-1.12 11.7-1.91 2.92-.59 8.82-1.44 11.94-1.67 24.34-1.8 47.39-.37 65.08 17.4 15.24 15.3 2.74 48.45-3.32 65.24l-8.27 19.86 20.47-27.62c10.18-13.5 26.35-32.52 41.51-40.16 15.98-8.06 36.1.98 48.87 10.47l33.43 31.91-10.89-19.96c-8.82-17.74-28.08-52.67-9.31-69.21 12.97-11.43 45.03-25.57 61.84-31.63 3.79-1.37 7.02-2.58 11.35-4.08 2.65-.92 9.47-3.17 11.45-4.89-19.26 0-48.11 6.37-76 .67-8.09-1.65-12.6-3.98-16.29-10.94-5.55-10.46-8.06-29.71-7.57-46.03.14-4.78.88-6.89.91-12.7.07-11.54 4.44-30.78 4.56-36.28-1.39 1.6-9.87 24.19-24.1 43.06l-7.42 8.92c-2.71 2.81-5.73 6.06-8.79 8.45-25.86 20.22-47.27 22.73-78.44 11.14-9.67-3.59-25.04-11.39-33.88-16.94-3.1-1.97-7.33-5.64-10.69-6.54z"/>
  <path d="M253.26 146.27c0 37.4 52.64 34.48 52.64.91 0-21.62-27.82-35.2-44.27-18.85-4.61 4.57-8.37 8.98-8.37 17.94zM367.61 178.94c0 15.18 12.48 26.32 23.6 26.32 8.23 0 14.99-.86 21.58-7.46 16.8-16.8 2.66-44.27-16.14-44.27-8.33 0-15.71 1.07-22.03 7.92-3.49 3.79-7.01 10.47-7.01 17.49zM60.87 456.64H51.8V414.9c17.7 0 27.22.24 27.22 21.78 0 10.77-7.67 19.96-18.15 19.96zM40 408.54v54.45c0 4.58 13.49 4.64 16.31 4.57 6.08-.14 13.43-1.95 18.07-3.77 24.8-9.68 26.65-59.79-15.32-59.79-3.93 0-19.06.07-19.06 4.54zM216.96 473.88c0-11.51 21.78-4.99 21.78-.91 0 8.81-21.78 5.38-21.78.91zm3.63-34.49c0-3.83-.39-9.08 8.17-9.08 9.56 0 10.62 14.52-.91 14.52-3.31.01-7.26-2.5-7.26-5.44zm-10.89-3.63c0 5.66.26 13.32 8.17 15.43-2.79 4.16-3.73 2.68-1.81 10.89-11.08 2.58-15.18 19.6 2.48 23.83 32.27 7.74 41.05-19.02 22.86-24.68l-16.27-3.7v-2.72c18.72-.42 25.89-13.3 19.96-24.5h5.45v-9.08c-10.02 0-25.36-1.53-30.88.89-5.52 2.43-9.96 6.96-9.96 13.64zM467.43 466.62c1.11-4.78 8.59-22.31 9.08-28.13l7.89 18.43c2.94 7.08 5.19 9.7 14.8 9.7 1.58-6.8 14.36-36.91 16.34-45.38h-11.8c-3.43 7.16-8.09 27.9-10.89 29.95-.48-5.77-8.11-21.93-9.98-29.95h-9.98c-2.02 4.21-3.27 9.96-5.18 14.79L462 451.19c-1.13-4.87-3.15-10.06-4.87-15.1-1.79-5.25-3.85-9.43-5.11-14.85H439.3l15.09 39.36c2.75 4.83 5.85 6.02 13.04 6.02zM373.96 280.58c0 11.52 9.74 22.69 20.87 22.69 7.51 0 12.94-.63 18.86-6.55 11.77-11.75 6-31.02-6.76-36.41-18.99-8.04-32.97 7.63-32.97 20.27zM530.96 443.93c0-11.86 7.52-16.46 17.24-11.8v24.5c-3.61.3-2.19.91-4.54.91-7.95 0-12.7-5.65-12.7-13.61zm17.24-21.78c-2.93-.68-5.63-1.82-9.08-1.82-30.89 0-26.37 51.76 7.53 46.59 3.58-.55 4.68-.63 7.78-1.34 2.77-.63 5.57-.32 5.57-3.51v-60.8h-11.8v20.88zM295.01 347.74c0 19.59 23.35 28.98 36.56 15.68 15.77-15.88 2.1-36.56-14.78-36.56-11.59 0-21.78 9.58-21.78 20.88zM403.91 444.84c0-19.01 19.97-20.85 19.97.91-.01 15.51-19.97 15.94-19.97-.91zm-12.71-1.82c0 18.16 15.33 28.64 31.68 22.61 21.11-7.79 17.12-45.29-8.09-45.29-14.25 0-23.59 10.24-23.59 22.68zM305.9 433.04c0 13.41 2.88 23.73 15.11 30.26 10.1 5.4 22.61 4.7 32.08-.31-.24-2.87-1.7-6.95-2.72-9.08-14.2 6.82-31.76.67-31.76-15.43 0-10.59 1.34-23.6 17.24-23.6 6.7 0 8.77 2.59 14.52 2.72.3-3.57 1.85-5.35 2.72-9.08-23.81-11.41-47.19 2.29-47.19 24.52zM117.14 430.32c4.33 0 10.05-.96 10.89 9.08h-17.24c.11-4.99 2.77-9.08 6.35-9.08zm-19.06 13.61c0 16.16 13.24 24.63 25.02 23.27 6.77-.79 8.82-2.09 14-3.3-1.15-2.17-3.02-6.47-3.63-9.08-7.93 3.8-21.81 4.23-22.69-6.35h27.23c5.85-12.2-3.49-28.13-18.15-28.13-13.47 0-21.78 10.31-21.78 23.59zM173.4 223.41c0 24.5 39.02 26.61 39.02-.91 0-11.32-11.04-19.32-19.78-18.82-10.19.59-19.24 8.5-19.24 19.73zM257.8 424.87l-.02 32.69c-.13 9.95-1.37 9.06 9.09 9.06 4.33 0 2.72-7.36 2.72-15.43v-19.06c17.82-4.15 16.69-1.83 16.32 25.43-.13 9.95-1.37 9.06 9.09 9.06 2.09 0 2.72-.63 2.72-2.72 0-23.31 4.79-43.56-19.06-43.56-8.75 0-14.01 2.94-20.86 4.53zM196.09 310.53c0 25.93 38.12 27.25 38.12-.91 0-22.73-38.12-23.49-38.12.91zM146.18 433.04c0 11.26 12.95 13.87 16.02 15.74 3.14 1.92 3.04 3.21 3.04 7.85-11.05 2.57-10.23-.75-17.24-.91-.61 2.6-1.69 6.01-2.72 8.17 10.01 4.8 32.67 6.38 32.67-10.89 0-10.16-8.27-11.94-15.08-14.87-3.17-1.36-4.57-2.24-4.89-6 5.49-3.68 9.6-1.36 15.43 0l2.85-9.03c-6.74-1.59-14.55-5.64-24.15.44-2.86 1.81-5.93 5.56-5.93 9.5zM361.26 425.78c1.38 5.91 1 23.71.89 31.78-.13 9.95-1.37 9.06 9.09 9.06 4.38 0 2.72-7.99 2.72-16.34v-19.06c13.34-1.11.27-1.11 13.61 0 .41-4.97 2.35-5.56 2.72-9.98-10.94-1.6-18.92-.81-29.03 4.54zM187.02 423.97v39.93c0 3.62 2.57 2.72 9.07 2.72 2.09 0 2.72-.63 2.72-2.72v-42.65c-8.31-.01-11.79-1.16-11.79 2.72zM186.11 405.82c0 10.03 13.61 10.03 13.61 0 0-7.24-13.61-7.24-13.61 0zM162.51 274.23h-2.72v.91c4.8 0 1.35-.01 2.72-.91zM384.85 349.55v.91l1.06-.76-1.06-.15zM189.74 159.88l-1.77-1.04 1.77 1.04zM190.65 160.79l-.91-.91.91.91zM384.85 349.55l-.91-1.81.91 1.81z"/>
</svg>
