<svg version="1.1" xmlns="http://www.w3.org/2000/svg" x="0" y="0" viewBox="0 0 600 600" xml:space="preserve" fill="white">
  <path d="M188.02 276.16c1.5.49 3.29.74 5.09.74 1.79 0 3.67-.23 5.18-.74 6.08-1.89 9.95-7.54 9.95-15.65v-5.73c0-10.07-6.02-16.36-15.03-16.36-9.03 0-15.05 6.29-15.05 16.36v5.73c.01 8.09 3.82 13.71 9.86 15.65zm64.19-35.13c0-11.2-10.25-15.03-16.27-15.03-6.8 0-10.44 2.42-14.22 9.62l-4.3 7.74s-1.65 2.84-1.65 6.27v11.22c0 14.78-8.94 24.69-22.58 24.69-13.59 0-22.52-9.91-22.52-24.69v-10.89c0-3.45-1.64-6.24-1.64-6.24l-4.41-8.1c-3.43-6.41-7.03-9.62-14.86-9.62-6.42 0-16.66 3.83-16.66 15.03 0 3.04 1.42 6.01 3.03 8.62l40.57 67.02v40.87c0 9.84 6.52 16.45 16.51 16.45 10.04 0 16.57-6.61 16.57-16.45v-40.87l39.98-67.01c1.58-2.61 2.45-5.59 2.45-8.63zm41.45 24.06c-34.33 0-54.75 22.61-54.75 56.31 0 25.18 15.28 52.6 55.72 52.6 17.48 0 45.44-8.16 45.44-25.62 0-5.36-4.98-11.32-11.93-11.32-11.67 0-11.67 14.76-33.51 14.76-16.86 0-26.77-10.89-26.77-25.93h65.48c9.7 0 12.69-3.04 12.69-12.97 0-23.81-19.05-47.83-52.37-47.83zm-25.8 42.75c3.17-13.53 11.9-22.97 26.37-22.97 12.91 0 22.82 10.94 24.42 22.97h-50.79zm148.27 2.24l21.43-22.41c2.58-2.77 4.37-4.38 4.37-9.55 0-7.33-7.15-13.09-13.71-13.09-4.35 0-7.79 2.38-10.74 5.56l-31.8 35.7v-26.77c0-9.53-6.32-14.49-15.02-14.49-8.75 0-15.05 4.96-15.05 14.49v79.95c0 9.52 6.3 14.51 15.05 14.51 8.71 0 15.02-4.98 15.02-14.51v-22.02l9.77-8.94 27.23 38.7c2.16 3.16 5.83 6.77 12.97 6.77 7.74 0 13.66-6.77 13.66-14.13 0-4.73-1.98-7.92-2.98-9.31l-30.2-40.46zm140.95 33.33V294.8c0-20.84-19.29-29.77-47.06-29.77-29.73 0-46.03 14.7-46.03 26.2 0 5.94 4.96 11.1 12.3 11.1 11.46 0 12.07-15.84 33.49-15.84 9.72 0 18.25 3.56 18.25 11.91 0 8.31-5.57 9.87-12.5 10.68l-17.65 2.01c-22.22 2.58-40.47 9.33-40.47 33.34 0 18.23 16.25 29.57 32.73 29.57 15.26 0 28.34-4.41 39.69-16.89.39 8.93 4.53 16.89 17.03 16.89 6.95 0 13.15-4.59 13.15-11.14-.01-4.59-2.93-7.38-2.93-19.45zm-28.57-9.54c0 10.71-9.97 21.02-25.84 21.02-9.92 0-16.19-5.34-16.19-11.88 0-8.73 6.46-12.5 18.58-14.29l10.72-1.6c3.36-.56 9.71-1.6 12.72-4.56l.01 11.31zM94.75 265.09C60.43 265.09 40 287.7 40 321.4c0 25.18 15.26 52.6 55.72 52.6 17.46 0 45.42-8.16 45.42-25.62 0-5.36-4.95-11.32-11.91-11.32-11.69 0-11.69 14.76-33.52 14.76-16.85 0-26.77-10.89-26.77-25.93h65.44c9.74 0 12.7-3.04 12.7-12.97.02-23.81-19.02-47.83-52.33-47.83zm-25.79 42.75c3.16-13.53 11.89-22.97 26.37-22.97 12.92 0 22.84 10.94 24.39 22.97H68.96z"/>
</svg>
